<?xml version="1.0" encoding="utf-8"?>
<!-- Generator: Adobe Illustrator 16.0.0, SVG Export Plug-In . SVG Version: 6.00 Build 0)  -->
<!DOCTYPE svg PUBLIC "-//W3C//DTD SVG 1.1//EN" "http://www.w3.org/Graphics/SVG/1.1/DTD/svg11.dtd">
<svg version="1.1" xmlns="http://www.w3.org/2000/svg" xmlns:xlink="http://www.w3.org/1999/xlink" x="0px" y="0px" width="1368px"
	 height="576px" viewBox="0 0 1368 576" enable-background="new 0 0 1368 576" xml:space="preserve">
<g id="Layer_1">
</g>
<g id="Layer_12">
	<text transform="matrix(1 0 0 1 285.8896 460.0059)" font-family="'BaskOldFace'" font-size="120" letter-spacing="48">FUNWAVE</text>
</g>
<g id="Layer_13">
	
		<linearGradient id="SVGID_1_" gradientUnits="userSpaceOnUse" x1="947.2793" y1="-1069.7402" x2="1668.9141" y2="-1069.7404" gradientTransform="matrix(-0.9769 0.2136 -0.2136 -0.9769 1961.3572 -1045.9167)">
		<stop  offset="0" style="stop-color:#96DBF9"/>
		<stop  offset="0.4483" style="stop-color:#DEF2FD"/>
		<stop  offset="1" style="stop-color:#FFFFFF"/>
	</linearGradient>
	<path fill="url(#SVGID_1_)" d="M1088.408,176.971l184.229,61.894c0,0-145.157,87.858-334.425,111.401
		c-56.575,7.037-155.804-61.76-335.575-62.378c0,0-145.787-18.721,17.073-4.478c114.933,10.052,207.905-9.894,261.785-20.518
		C949.861,249.411,1013.33,223.323,1088.408,176.971z"/>
</g>
<g id="Layer_11">
</g>
<g id="Layer_9">
	<linearGradient id="SVGID_2_" gradientUnits="userSpaceOnUse" x1="63.7109" y1="248.7949" x2="816.6738" y2="248.7949">
		<stop  offset="0" style="stop-color:#96DBF9"/>
		<stop  offset="0.3054" style="stop-color:#DEF2FD"/>
	</linearGradient>
	<path fill="url(#SVGID_2_)" d="M159.707,307.434L63.711,186.689c0,0,166.682-51.435,279.736-16.475
		c288.224,89.129,297.735,128.219,473.227,167.217c0,0-20.291,14.816-176.352-33.881c-110.134-34.366-205.222-34.737-260.127-35.866
		C310.528,266.254,242.952,278.185,159.707,307.434z"/>
</g>
<g id="Layer_6">
	<linearGradient id="SVGID_3_" gradientUnits="userSpaceOnUse" x1="417.6909" y1="209.9312" x2="1181.1377" y2="209.9312">
		<stop  offset="0" style="stop-color:#FFFFFF"/>
		<stop  offset="0.6355" style="stop-color:#DEF2FD"/>
		<stop  offset="1" style="stop-color:#03ADE2"/>
	</linearGradient>
	<path fill="url(#SVGID_3_)" d="M417.691,116.942c116.947-5.886,273.499,42.611,392.743,88.359
		c119.244,45.748,276.209,90.225,370.704,77.475c0,0-36.733,43.405-210.725,4.299c-45.313-10.185-271.661-73.215-328.483-98.137
		C599.182,170.189,417.691,116.942,417.691,116.942z"/>
</g>
<g id="Layer_5">
	<linearGradient id="SVGID_4_" gradientUnits="userSpaceOnUse" x1="80.9614" y1="232.9438" x2="1335.6055" y2="232.9438">
		<stop  offset="0" style="stop-color:#DEF2FD"/>
		<stop  offset="1" style="stop-color:#03ADE2"/>
	</linearGradient>
	<path fill="url(#SVGID_4_)" d="M1335.605,252.686c-13.456,11.25-115.451,76.496-230.195,95.995s-261.737,3.75-355.482-25.499
		c-93.745-29.248-531.722-215.238-668.966-174.741c0,0,148.286-60.747,343.754-32.249c0,0,147.459,5.129,295.962,64.497
		c128.254,51.272,193.488,89.245,317.982,106.386C1148.255,302.165,1335.605,252.686,1335.605,252.686z"/>
	<path fill="#FFFFFF" d="M783.638,215.305c-28.5,7.083-68.503,12.449-88,12.083c-106.25-2-299.188-85.123-367.188-89.446
		s-108.812-16.554-157.312-5.054s115.06-46.444,197.06-32.444s162.44,53.081,200.44,69.762s100.839,41.346,132.25,46.432
		C753.388,225.137,783.638,215.305,783.638,215.305z"/>
</g>
<g id="Layer_7">
</g>
<g id="Layer_8">
	<g id="Layer_4">
		<linearGradient id="SVGID_5_" gradientUnits="userSpaceOnUse" x1="809.957" y1="231.3101" x2="1292.6377" y2="231.3101">
			<stop  offset="0" style="stop-color:#20C3F3"/>
			<stop  offset="0.6404" style="stop-color:#003366"/>
		</linearGradient>
		<path fill="url(#SVGID_5_)" d="M1292.638,158.037c0,0-65.001,5.85-177,55.253c-46.622,20.564-105,42.259-156.5,60.759
			s-125.5,29-146,27.5s61.849,12.729,139.5-10c111.172-32.539,173.833-66.397,215.667-84.995
			C1249.543,170.438,1292.638,158.037,1292.638,158.037z"/>
	</g>
	<linearGradient id="SVGID_6_" gradientUnits="userSpaceOnUse" x1="190.6377" y1="238.8643" x2="1181.1377" y2="238.8643">
		<stop  offset="0.2217" style="stop-color:#FFFFFF"/>
		<stop  offset="1" style="stop-color:#B9E5FB"/>
	</linearGradient>
	<path fill="url(#SVGID_6_)" d="M1181.138,301.387c-78.5,26.5-131.5,26.5-183.5,24.5s-191.5-31.32-325.5-83.32
		c-134-52-368-150.18-481.5-104.68c0,0,104.572,11.227,217.5,44s285.862,103.756,375.5,130.5c131.5,39.234,210.006,39.805,229.5,39
		C1130.423,346.549,1181.138,301.387,1181.138,301.387z"/>
	<g id="Layer_3">
		<linearGradient id="SVGID_7_" gradientUnits="userSpaceOnUse" x1="440.1924" y1="210.7388" x2="1242.6523" y2="210.7388">
			<stop  offset="0" style="stop-color:#20C3F3"/>
			<stop  offset="0.5172" style="stop-color:#195C8C"/>
			<stop  offset="0.8473" style="stop-color:#003366"/>
		</linearGradient>
		<path fill="url(#SVGID_7_)" d="M1242.652,126.961c-56.996,6.48-265.929,89.628-320.983,106.976
			c-241.031,75.95-461.228,9.673-481.477-6.531c0,0,138.374,71.3,303.445,66.917c70-1.858,148.5-15.435,263.557-66.917
			C1125.235,174.588,1242.652,126.961,1242.652,126.961z"/>
		<g id="Layer_2">
			<linearGradient id="SVGID_8_" gradientUnits="userSpaceOnUse" x1="44.9463" y1="187.54" x2="875.9219" y2="187.54">
				<stop  offset="0" style="stop-color:#003366"/>
				<stop  offset="0.1675" style="stop-color:#195C8C"/>
				<stop  offset="1" style="stop-color:#20C3F3"/>
			</linearGradient>
			<path fill="url(#SVGID_8_)" d="M44.946,154.282c90.827-32.999,207.365-66.362,318.188-21.494
				c80.875,32.743,256.365,104.74,344.861,106.989c47.728,1.214,85.431,14.836,167.927-0.913c0,0-106.288,31.457-216.284,24.023
				c-153.743-10.391-191.756-26.752-314-74C223.25,141.584,44.946,154.282,44.946,154.282z"/>
		</g>
	</g>
</g>
<g id="Layer_10">
	<path fill="#FFFFFF" d="M221.638,152.898c14.213,0.327,60.791,3.876,108,13.031c29.452,5.712,61.401,15.695,79.116,21.61
		c96.884,32.347,189.727,56.991,233.68,62.169c51.681,6.089,91.871-1.322,104.871-3.322c0,0-32.171,14.594-94.167,12
		c-46.281-1.937-100.543-12.702-144.706-24.212c-34.037-8.871-61.556-19.535-75.834-24.243
		c-30.46-10.044-64.955-24.309-90.021-31.828C270.063,156.35,221.638,152.898,221.638,152.898z"/>
</g>
</svg>
